<?xml version="1.0" encoding="UTF-8" standalone="no"?>
<!-- Created with Inkscape (http://www.inkscape.org/) -->

<svg
   width="152.795mm"
   height="152.795mm"
   viewBox="0 0 152.795 152.795"
   version="1.1"
   id="svg1"
   xmlns="http://www.w3.org/2000/svg"
   xmlns:svg="http://www.w3.org/2000/svg">
  <defs
     id="defs1">
    <clipPath
       clipPathUnits="userSpaceOnUse"
       id="clipPath17">
      <path
         d="M 0,243.852 H 473.279 V 0 H 0 Z"
         transform="translate(-210.4141,-118.0693)"
         id="path17" />
    </clipPath>
    <clipPath
       clipPathUnits="userSpaceOnUse"
       id="clipPath15">
      <path
         d="M 0,243.852 H 473.279 V 0 H 0 Z"
         transform="matrix(1.3333333,0,0,-1.3333333,0,325.136)"
         id="path15" />
    </clipPath>
    <clipPath
       clipPathUnits="userSpaceOnUse"
       id="clipPath13">
      <path
         d="M 149.244,147.479 H 195.85 V 76.9512 h -46.606 z"
         transform="matrix(1,0,0,-1,-149.2441,95.280302)"
         id="path13" />
    </clipPath>
    <clipPath
       clipPathUnits="userSpaceOnUse"
       id="clipPath12">
      <path
         d="M 0,243.852 H 473.279 V 0 H 0 Z"
         transform="matrix(1.3333333,0,0,-1.3333333,0,325.136)"
         id="path12" />
    </clipPath>
    <clipPath
       clipPathUnits="userSpaceOnUse"
       id="clipPath10">
      <path
         d="M 216.733,118.144 H 476.266 V 47.6152 H 216.733 Z"
         transform="matrix(1,0,0,-1,-216.73291,65.944299)"
         id="path10" />
    </clipPath>
    <clipPath
       clipPathUnits="userSpaceOnUse"
       id="clipPath9">
      <path
         d="M 0,243.852 H 473.279 V 0 H 0 Z"
         transform="translate(-221.7334,-118.0693)"
         id="path9" />
    </clipPath>
  </defs>
  <g
     id="layer1"
     transform="translate(-21.162079,-53.642744)">
    <g
       id="g1"
       transform="translate(97.891246,30.14215)">
      <path
         id="path4"
         d="m -76.729167,123.15518 3.071283,6.68937 L 65.711909,65.851372 62.63992,59.162353 Z"
         style="fill:#0f9ad6;fill-opacity:1;fill-rule:nonzero;stroke:none;stroke-width:0.352778" />
      <path
         id="path5"
         d="M 28.04068,99.151579 -7.4272432,105.04544 -8.6333904,97.784565 26.83418,91.890354 Z"
         style="fill:#0f9ad6;fill-opacity:1;fill-rule:nonzero;stroke:none;stroke-width:0.352778" />
      <path
         id="path6"
         d="m -50.84625,138.30279 5.740047,4.60798 61.314186,-76.377793 -5.7404,-4.608336 z"
         style="fill:#0f9ad6;fill-opacity:1;fill-rule:nonzero;stroke:none;stroke-width:0.352778" />
      <path
         id="path7"
         d="m -24.889778,92.67084 -14.425435,-32.824207 6.73876,-2.961216 14.425436,32.823854 z"
         style="fill:#0f9ad6;fill-opacity:1;fill-rule:nonzero;stroke:none;stroke-width:0.352778" />
      <path
         id="path8"
         d="M 0,0 C 0,-26.786 -21.715,-48.5 -48.501,-48.5 -75.288,-48.5 -97,-26.787 -97,0 -97,26.787 -75.288,48.499 -48.501,48.499 -21.715,48.499 0,26.786 0,0"
         style="fill:#0f9ad6;fill-opacity:1;fill-rule:nonzero;stroke:none"
         transform="matrix(0.35277776,0,0,-0.35277776,1.4934472,101.25844)"
         clip-path="url(#clipPath9)" />
      <g
         id="g11"
         clip-path="url(#clipPath12)"
         transform="matrix(0.26458333,0,0,0.26458333,-76.729167,56.885098)">
        <path
           d="M 45.573741,5.03125e-4 H 34.651866 L 15.995616,-30.163559 V 5.03125e-4 H 5.6128031 V -43.944809 H 19.159678 l 16.019531,25.171875 v -25.171875 h 10.394532 z m 84.972659,0 H 98.765147 V -43.944809 H 130.5464 v 8.496093 h -20.50782 v 7.582032 h 19.03125 v 8.507812 H 110.03858 V -8.4955906 H 130.5464 Z M 216.38624,-35.448716 H 202.66358 V 5.03125e-4 H 191.31983 V -35.448716 h -13.72265 v -8.496093 h 38.78906 z m 0,0"
           style="fill:#0f9ad6;fill-opacity:1;fill-rule:nonzero;stroke:none"
           aria-label="NET"
           transform="matrix(1.3333333,0,0,1.3333333,288.9772,237.21027)"
           clip-path="url(#clipPath10)"
           id="path11" />
      </g>
      <g
         id="g14"
         clip-path="url(#clipPath15)"
         transform="matrix(0.26458333,0,0,0.26458333,-76.729167,56.885098)">
        <path
           d="M 46.628947,-0.0013875 H 32.730509 L 19.593791,-17.591231 16.945353,-14.380294 V -0.0013875 H 5.6133219 V -43.9467 H 16.945353 v 19.886719 L 32.648478,-43.9467 h 13.125 l -17.179687,20.332031 z m 0,0"
           style="fill:#ffffff;fill-opacity:1;fill-rule:nonzero;stroke:none"
           aria-label="K"
           transform="matrix(1.3333333,0,0,1.3333333,198.99213,198.0956)"
           clip-path="url(#clipPath13)"
           id="path14" />
      </g>
      <path
         id="path16"
         d="m 0,0 c 0,-20.534 -16.646,-37.181 -37.182,-37.181 -20.534,0 -37.18,16.646 -37.18,37.181 0,20.535 16.646,37.181 37.18,37.181 C -16.646,37.181 0,20.534 0,0 Z"
         style="fill:none;stroke:#ffffff;stroke-width:5;stroke-linecap:butt;stroke-linejoin:miter;stroke-miterlimit:4;stroke-dasharray:none;stroke-opacity:1"
         transform="matrix(0.35277776,0,0,-0.35277776,-2.4997502,101.25844)"
         clip-path="url(#clipPath17)" />
    </g>
  </g>
</svg>
