<?xml version="1.0" encoding="UTF-8" standalone="no"?>
<!-- Created with Inkscape (http://www.inkscape.org/) -->

<svg
   width="152.7948mm"
   height="86.025352mm"
   viewBox="0 0 152.7948 86.025352"
   version="1.1"
   id="svg1"
   xmlns="http://www.w3.org/2000/svg"
   xmlns:svg="http://www.w3.org/2000/svg">
  <defs
     id="defs1">
    <clipPath
       clipPathUnits="userSpaceOnUse"
       id="clipPath17">
      <path
         d="M 0,243.852 H 473.279 V 0 H 0 Z"
         transform="translate(-210.4141,-118.0693)"
         id="path17" />
    </clipPath>
    <clipPath
       clipPathUnits="userSpaceOnUse"
       id="clipPath15">
      <path
         d="M 0,243.852 H 473.279 V 0 H 0 Z"
         transform="matrix(1.3333333,0,0,-1.3333333,0,325.136)"
         id="path15" />
    </clipPath>
    <clipPath
       clipPathUnits="userSpaceOnUse"
       id="clipPath13">
      <path
         d="M 149.244,147.479 H 195.85 V 76.9512 h -46.606 z"
         transform="matrix(1,0,0,-1,-149.2441,95.280302)"
         id="path13" />
    </clipPath>
    <clipPath
       clipPathUnits="userSpaceOnUse"
       id="clipPath12">
      <path
         d="M 0,243.852 H 473.279 V 0 H 0 Z"
         transform="matrix(1.3333333,0,0,-1.3333333,0,325.136)"
         id="path12" />
    </clipPath>
    <clipPath
       clipPathUnits="userSpaceOnUse"
       id="clipPath10">
      <path
         d="M 216.733,118.144 H 476.266 V 47.6152 H 216.733 Z"
         transform="matrix(1,0,0,-1,-216.73291,65.944299)"
         id="path10" />
    </clipPath>
    <clipPath
       clipPathUnits="userSpaceOnUse"
       id="clipPath9">
      <path
         d="M 0,243.852 H 473.279 V 0 H 0 Z"
         transform="translate(-221.7334,-118.0693)"
         id="path9" />
    </clipPath>
  </defs>
  <g
     id="layer1"
     transform="translate(-84.402083,-137.31875)">
    <path
       id="path4"
       d="m 84.402083,203.58851 3.071283,6.68937 139.369794,-63.99318 -3.07199,-6.68902 z"
       style="fill:#0f9ad6;fill-opacity:1;fill-rule:nonzero;stroke:none;stroke-width:0.352778" />
    <path
       id="path5"
       d="m 189.17193,179.58491 -35.46792,5.89386 -1.20615,-7.26087 35.46757,-5.89421 z"
       style="fill:#0f9ad6;fill-opacity:1;fill-rule:nonzero;stroke:none;stroke-width:0.352778" />
    <path
       id="path6"
       d="m 110.285,218.73612 5.74005,4.60798 61.31418,-76.37779 -5.7404,-4.60834 z"
       style="fill:#0f9ad6;fill-opacity:1;fill-rule:nonzero;stroke:none;stroke-width:0.352778" />
    <path
       id="path7"
       d="m 136.24147,173.10417 -14.42544,-32.82421 6.73877,-2.96121 14.42543,32.82385 z"
       style="fill:#0f9ad6;fill-opacity:1;fill-rule:nonzero;stroke:none;stroke-width:0.352778" />
    <path
       id="path8"
       d="M 0,0 C 0,-26.786 -21.715,-48.5 -48.501,-48.5 -75.288,-48.5 -97,-26.787 -97,0 -97,26.787 -75.288,48.499 -48.501,48.499 -21.715,48.499 0,26.786 0,0"
       style="fill:#0f9ad6;fill-opacity:1;fill-rule:nonzero;stroke:none"
       transform="matrix(0.35277776,0,0,-0.35277776,162.6247,181.69177)"
       clip-path="url(#clipPath9)" />
    <g
       id="g11"
       clip-path="url(#clipPath12)"
       transform="matrix(0.26458333,0,0,0.26458333,84.402083,137.31843)">
      <path
         d="M 45.573741,5.03125e-4 H 34.651866 L 15.995616,-30.163559 V 5.03125e-4 H 5.6128031 V -43.944809 H 19.159678 l 16.019531,25.171875 v -25.171875 h 10.394532 z m 84.972659,0 H 98.765147 V -43.944809 H 130.5464 v 8.496093 h -20.50782 v 7.582032 h 19.03125 v 8.507812 H 110.03858 V -8.4955906 H 130.5464 Z M 216.38624,-35.448716 H 202.66358 V 5.03125e-4 H 191.31983 V -35.448716 h -13.72265 v -8.496093 h 38.78906 z m 0,0"
         style="fill:#0f9ad6;fill-opacity:1;fill-rule:nonzero;stroke:none"
         aria-label="NET"
         transform="matrix(1.3333333,0,0,1.3333333,288.9772,237.21027)"
         clip-path="url(#clipPath10)"
         id="path11" />
    </g>
    <g
       id="g14"
       clip-path="url(#clipPath15)"
       transform="matrix(0.26458333,0,0,0.26458333,84.402083,137.31843)">
      <path
         d="M 46.628947,-0.0013875 H 32.730509 L 19.593791,-17.591231 16.945353,-14.380294 V -0.0013875 H 5.6133219 V -43.9467 H 16.945353 v 19.886719 L 32.648478,-43.9467 h 13.125 l -17.179687,20.332031 z m 0,0"
         style="fill:#ffffff;fill-opacity:1;fill-rule:nonzero;stroke:none"
         aria-label="K"
         transform="matrix(1.3333333,0,0,1.3333333,198.99213,198.0956)"
         clip-path="url(#clipPath13)"
         id="path14" />
    </g>
    <path
       id="path16"
       d="m 0,0 c 0,-20.534 -16.646,-37.181 -37.182,-37.181 -20.534,0 -37.18,16.646 -37.18,37.181 0,20.535 16.646,37.181 37.18,37.181 C -16.646,37.181 0,20.534 0,0 Z"
       style="fill:none;stroke:#ffffff;stroke-width:5;stroke-linecap:butt;stroke-linejoin:miter;stroke-miterlimit:4;stroke-dasharray:none;stroke-opacity:1"
       transform="matrix(0.35277776,0,0,-0.35277776,158.6315,181.69177)"
       clip-path="url(#clipPath17)" />
  </g>
</svg>
